<svg xmlns="http://www.w3.org/2000/svg" width="2617" height="688" viewBox="0 0 2617 688" fill="none"><path d="M364.962 22.5575C299.205 22.3502 234.862 40.6848 180.082 75.2394C125.302 109.794 82.5487 159.014 57.2361 216.667C31.9235 274.32 25.1905 337.812 37.8896 399.102C50.5887 460.393 82.1489 516.725 128.573 560.964C174.998 605.204 234.198 635.361 298.677 647.617C363.156 659.873 430.013 653.676 490.783 629.812C551.552 605.947 603.499 565.488 640.046 513.558C676.593 461.628 696.096 400.563 696.084 338.097C696.157 296.724 687.649 255.742 671.047 217.492C654.445 179.243 630.074 144.474 599.326 115.173C568.577 85.8717 532.054 62.6114 491.841 46.7202C451.629 30.8291 408.515 22.6186 364.962 22.5575ZM234.315 493.859H154.199C110.711 493.859 137.845 454.061 137.845 454.061L161.426 416.007C176.004 395.061 190.888 399.541 200.137 405.883C203.513 408.288 206.54 411.105 209.141 414.261L230.884 442.714L239.215 454.351C242.246 458.641 244.909 463.155 247.177 467.851C259.856 494.907 234.315 493.976 234.315 493.976M525.991 501.598C472.825 481.64 441.097 416.647 441.097 416.647L361.042 276.653L350.875 294.633L298.26 388.427H359.817L360.307 365.444C360.307 365.444 360.307 365.153 360.307 364.979C361.042 360.556 361.287 358.055 365.33 358.055H366.493C369.433 358.52 371.026 360.848 372.618 363.873L402.386 412.283L403.183 413.447C403.795 414.378 404.408 415.251 404.959 416.24C407.847 421.167 409.345 426.718 409.308 432.357C409.309 436.206 408.605 440.026 407.225 443.645L381.439 501.191C379.785 504.857 377.947 507.358 374.211 507.358C370.475 507.358 369.985 504.856 369.189 500.376C369.189 500.376 369.189 500.027 369.189 499.911L368.637 476.986H290.665C282.76 476.975 275.023 474.814 268.37 470.76C267.635 470.294 266.9 469.887 266.226 469.364C264.575 468.096 263.254 466.483 262.367 464.65C262.367 464.65 256.243 455.108 252.2 448.533L244.053 438.002L231.068 419.731L226.352 413.913L207.976 393.373C207.382 392.606 206.83 391.809 206.322 390.987V390.347C203.7 385.672 202.077 380.551 201.546 375.278C201.448 374.096 201.448 372.91 201.546 371.728C201.546 371.728 201.546 371.321 201.546 371.088C201.546 370.448 201.546 369.75 201.546 369.052C201.812 367.25 202.326 365.489 203.077 363.815C203.42 362.922 203.894 362.079 204.485 361.313L215.02 341.763L267.329 248.666L280.988 224.403C356.939 61.4836 420.823 148.762 424.804 154.58C428.786 160.399 597.776 467.676 597.776 467.676C615.784 522.778 525.745 501.889 525.745 501.889" fill="#012B5E"></path><path d="M1693.25 188.968H1617.91V487.285H1693.25V188.968Z" fill="#012B5E"></path><path d="M2110.79 182.975C2089.27 182.627 2067.89 186.404 2047.94 194.082C2027.98 201.759 2009.86 213.179 1994.66 227.659C1979.46 242.139 1967.48 259.382 1959.45 278.357C1951.42 297.332 1947.5 317.65 1947.93 338.097C1947.86 354.809 1950.51 371.431 1955.77 387.38C1945.73 401.51 1930.94 411.975 1913.81 417.055C1908.86 418.654 1903.78 419.841 1898.62 420.604C1894.06 421.334 1889.46 421.742 1884.84 421.826C1853.11 421.826 1827.14 408.269 1812.75 384.762C1805.93 373.426 1801.89 360.778 1800.93 347.756C1800.93 344.672 1800.5 341.53 1800.5 338.272C1800.5 335.013 1800.5 333.151 1800.86 330.649C1800.86 329.602 1800.86 328.555 1800.86 327.507C1800.86 326.46 1800.86 325.064 1801.35 323.842C1801.76 320.79 1802.33 317.76 1803.07 314.764C1811.83 278.399 1841.35 253.903 1884.59 253.903H1885.27C1889.87 253.966 1894.46 254.374 1898.99 255.124C1904.15 255.941 1909.23 257.167 1914.18 258.79C1923.76 236.326 1937.68 215.762 1955.22 198.161C1948.12 194.994 1940.79 192.311 1933.29 190.131L1927.16 188.502H1926.12C1920.55 187.164 1914.91 186.058 1909.15 185.244L1905.24 184.72L1901.38 184.313L1896.35 183.905H1893.17H1885.15H1884.78C1848.16 183.669 1812.5 195.055 1783.47 216.257C1750.72 240.556 1729.27 276.054 1723.69 315.172C1723.2 318.605 1722.83 322.154 1722.52 325.645V327.914C1722.52 331.522 1722.16 335.129 1722.16 338.795C1722.14 347.031 1722.76 355.256 1723.99 363.407C1735.88 440.387 1803.25 493.976 1884.96 493.976C1887.72 493.976 1890.47 493.976 1893.17 493.976H1895.8H1897.95H1901.44L1905.17 493.568H1907.44L1910.62 493.103C1913.14 492.754 1915.65 492.347 1918.1 491.823L1921.34 491.241C1922.94 491.241 1924.53 490.543 1926.12 490.135H1927.29L1931.02 489.262L1935.19 488.041L1940.82 486.237L1945.54 484.608C1947.19 484.026 1948.85 483.386 1950.44 482.688L1955.09 480.826H1955.64C1971.19 473.973 1985.46 464.777 1997.91 453.595C2028.54 480.92 2069.08 495.969 2111.1 495.605C2153.87 494.818 2194.61 478.126 2224.56 449.115C2254.51 420.104 2271.29 381.09 2271.29 340.454C2271.29 299.817 2254.51 260.803 2224.56 231.792C2194.61 202.781 2153.87 186.089 2111.1 185.302M2111.1 424.852C2060.38 424.852 2026.76 390.289 2026.76 340.424C2026.76 290.56 2060.38 256.056 2111.1 256.056C2161.81 256.056 2195.87 290.152 2195.87 340.424C2195.87 390.697 2162.24 424.852 2111.1 424.852Z" fill="#012B5E"></path><path d="M2508.37 188.968V257.161C2508.37 311.273 2509.29 364.106 2508.8 364.106H2508.37C2507.94 364.106 2459.92 299.753 2439.71 274.209L2372.89 188.968H2302.02V487.284H2377.36V421.069C2377.36 355.843 2376.5 309.819 2376.93 309.819H2377.36C2377.85 309.819 2420.23 366.491 2448.71 404.021L2512.84 487.11H2583.71V188.793L2508.37 188.968Z" fill="#012B5E"></path><path d="M874.752 188.968L749.127 487.285H940.597L916.096 424.619H854.111L872.486 378.07L881.612 354.796L894.904 320.409C901.641 303.418 909.726 276.537 910.155 276.537H910.646C911.074 276.537 919.16 303.418 925.897 320.409L939.188 354.796L948.253 378.07L972.753 440.678L977.96 454.351L990.639 487.518H1071.86L946.232 189.201L874.752 188.968Z" fill="#012B5E"></path><path d="M1534.24 326.635V326.169C1553.11 319.768 1573.32 295.913 1573.32 267.984C1573.32 224.519 1534.24 189.142 1478.2 189.142H1270.37V353.225C1270.37 404.37 1248.38 426.539 1207.1 426.539C1165.82 426.539 1143.83 404.37 1143.83 353.225V189.142H1068.49V354.913C1068.49 444.402 1123.61 493.452 1207.1 493.452C1288.5 493.452 1343.57 446.264 1345.65 359.975H1469.68C1493.45 359.975 1510.48 372.776 1510.48 393.664C1510.48 413.215 1494.79 427.295 1469.68 427.295H1375.36V487.343H1477.28C1554.88 487.343 1589.43 446.613 1589.43 396.981C1589.43 366.724 1563.89 334.373 1534.3 326.693M1462.33 305.28H1345.96V249.073H1462.33C1482.48 249.073 1497.31 260.711 1497.31 277.177C1497.31 293.643 1482.48 305.28 1462.33 305.28Z" fill="#012B5E"></path></svg>